<svg width="50" height="50" xmlns="http://www.w3.org/2000/svg" xmlns:svg="http://www.w3.org/2000/svg">

 <metadata>Icons8</metadata>
 <g class="layer">
  <title>Layer 1</title>
  <path fill="#ffffff" id="svg_1" d="m8,3.01c-3.47,0 -5.99,2.08 -5.99,4.94c0,2.87 2.58,5.04 5.99,5.04c3.47,0 5.99,-2.12 5.99,-5.1c-0.16,-2.87 -2.63,-4.88 -5.99,-4.88zm-5,11.99c-0.55,0 -1,0.45 -1,1l0,29c0,0.55 0.45,1 1,1l10,0c0.55,0 1,-0.45 1,-1l0,-29c0,-0.55 -0.45,-1 -1,-1l-10,0zm15,0c-0.55,0 -1,0.45 -1,1l0,29c0,0.55 0.45,1 1,1l9,0a1,1 0 0 0 1,-1l0,-15.5c0,-2.37 1.82,-4.3 4.14,-4.48c0.12,-0.02 0.24,-0.02 0.36,-0.02s0.24,0 0.36,0.02c2.32,0.18 4.14,2.11 4.14,4.48l0,15.5a1,1 0 0 0 1,1l9,0c0.55,0 1,-0.45 1,-1l0,-17c0,-6.47 -3.47,-13 -11.21,-13c-3.52,0 -6.18,1.36 -7.79,2.49l0,-1.49c0,-0.55 -0.45,-1 -1,-1l-10,0z"/>
 </g>
</svg>
